# Blender v2.80 (sub 75) OBJ File: ''
# www.blender.org
mtllib Geometry/Map/floor.mtl
o Floor_Plane.023
v -14.450976 -0.021669 19.524775
v -14.450975 -0.021669 24.502712
v 14.637491 0.000000 19.511032
v 14.637492 0.000000 24.488970
v -2.488969 0.000000 19.494562
v 2.488969 0.000000 19.494564
v -2.488969 0.000000 7.505439
v 2.488967 0.000000 7.505439
v -20.631367 -0.021669 -2.475226
v -20.631367 -0.021669 2.502712
v 20.092485 0.000000 -2.488971
v 20.092485 0.000000 2.488967
v -19.524775 -0.021669 -15.450978
v -24.502712 -0.021669 -15.450977
v -19.511030 0.000000 15.637493
v -24.488966 0.000000 15.637494
v 14.457666 0.000000 -14.456347
v 29.542324 0.000000 -14.456350
v 14.457668 0.000000 -29.543657
v 29.542328 0.000000 -29.543659
v -29.542328 0.000000 29.543657
v -14.457670 0.000000 29.543659
v -29.542330 0.000000 14.456350
v -14.457670 0.000000 14.456348
v 14.457673 0.000000 29.543661
v 29.542330 0.000000 29.543659
v 14.457675 0.000000 14.456350
v 29.542334 0.000000 14.456349
v -29.542328 0.000000 -14.456348
v -14.457672 0.000000 -14.456351
v -29.542330 0.000000 -29.543659
v -14.457672 0.000000 -29.543661
v -7.542329 0.000000 7.543655
v 7.542327 0.000000 7.543655
v -7.542329 0.000000 -7.543655
v 7.542330 0.000000 -7.543655
v -2.488969 0.000000 -7.505439
v 2.488970 0.000000 -7.505439
v -2.488968 0.000000 -19.494564
v 2.488968 0.000000 -19.494564
v -14.450976 -0.021669 -24.475233
v -14.450975 -0.021669 -19.497293
v 14.637494 0.000000 -24.488974
v 14.637495 0.000000 -19.511034
v 24.475224 -0.021669 -14.450979
v 19.497286 -0.021669 -14.450978
v 24.488970 0.000000 14.637495
v 19.511034 0.000000 14.637496
vt 2.811472 7.273915
vt -1.898447 8.993252
vt -1.898447 7.269161
vt -0.628056 0.444696
vt 1.375527 2.135988
vt -0.628056 2.135988
vt 3.812182 -0.345717
vt -2.781704 1.373618
vt -2.781704 -0.350475
vt 1.166008 4.348954
vt -0.428420 -3.347437
vt 1.170423 -3.347437
vt 9.660552 2.480486
vt 5.962761 -1.441424
vt 9.660555 -1.441425
vt -1.460001 2.480487
vt -5.157792 -1.441424
vt -1.460007 -1.441424
vt 5.953702 2.480486
vt 2.255909 -1.441424
vt 5.953702 -1.441425
vt -5.166851 2.480487
vt -8.864641 -1.441424
vt -5.166856 -1.441424
vt 2.246850 2.480486
vt -1.450943 -1.441424
vt 2.246843 -1.441424
vt 1.099546 -2.654168
vt -0.386005 -0.847901
vt -0.386006 -2.654168
vt 2.811471 -7.965348
vt -1.898448 -6.246014
vt -1.898448 -7.970107
vt 1.177466 4.106433
vt -0.416962 -3.094851
vt 1.181881 -3.094850
vt 2.811472 8.998011
vt 1.375527 0.444696
vt 3.812182 1.378376
vt -0.432835 4.348954
vt 5.962761 2.480487
vt -5.157792 2.480487
vt 2.255908 2.480487
vt -8.864643 2.480487
vt -1.450943 2.480487
vt 1.099546 -0.847901
vt 2.811471 -6.241256
vt -0.421376 4.106433
vn -0.0007 1.0000 0.0000
vn 0.0000 1.0000 0.0000
vn -0.0005 1.0000 0.0000
vn -0.0000 1.0000 -0.0007
usemtl Metal.001
s off
f 1/1/1 4/2/1 3/3/1
f 6/4/2 7/5/2 5/6/2
f 9/7/3 12/8/3 11/9/3
f 13/10/4 16/11/4 15/12/4
f 18/13/2 19/14/2 17/15/2
f 22/16/2 23/17/2 21/18/2
f 26/19/2 27/20/2 25/21/2
f 30/22/2 31/23/2 29/24/2
f 34/25/2 35/26/2 33/27/2
f 38/28/2 39/29/2 37/30/2
f 41/31/1 44/32/1 43/33/1
f 45/34/4 48/35/4 47/36/4
f 1/1/1 2/37/1 4/2/1
f 6/4/2 8/38/2 7/5/2
f 9/7/3 10/39/3 12/8/3
f 13/10/4 14/40/4 16/11/4
f 18/13/2 20/41/2 19/14/2
f 22/16/2 24/42/2 23/17/2
f 26/19/2 28/43/2 27/20/2
f 30/22/2 32/44/2 31/23/2
f 34/25/2 36/45/2 35/26/2
f 38/28/2 40/46/2 39/29/2
f 41/31/1 42/47/1 44/32/1
f 45/34/4 46/48/4 48/35/4
