# Blender v2.80 (sub 75) OBJ File: ''
# www.blender.org
mtllib Geometry/Map/key.mtl
o key
v -0.049627 0.132169 0.121442
v -0.004599 0.136832 0.127853
v -0.005840 0.255346 0.160407
v -0.062281 0.253835 0.152409
v -0.057917 0.375053 0.121442
v -0.005367 0.389394 0.127853
v -0.005840 0.421595 -0.008857
v -0.062281 0.406020 -0.008600
v -0.057917 0.375053 -0.121442
v -0.005367 0.389394 -0.127484
v -0.005840 0.254181 -0.160038
v -0.062281 0.252714 -0.152409
v -0.049627 -0.371006 -0.030527
v -0.004599 -0.386394 -0.031907
v -0.005840 -0.391280 -0.000197
v -0.062281 -0.375704 -0.000363
v 0.062281 0.101202 -0.001444
v 0.049627 0.132169 -0.121442
v 0.038190 0.160157 -0.093454
v 0.047928 0.136326 -0.001111
v 0.062281 0.252714 -0.152409
v 0.057917 0.375053 -0.121442
v 0.038190 0.347065 -0.093454
v 0.047928 0.252921 -0.117284
v 0.047928 0.370895 -0.006618
v 0.062281 0.406020 -0.008600
v 0.057917 0.375053 0.121442
v 0.038190 0.347065 0.093454
v 0.062281 0.253835 0.152409
v 0.049627 0.132169 0.121442
v 0.038190 0.160157 0.093454
v 0.047928 0.253783 0.117285
v -0.049627 0.132169 -0.121442
v -0.062281 0.101202 -0.001444
v -0.047928 0.136326 -0.001111
v -0.038190 0.160157 -0.093454
v -0.047928 0.253783 0.117285
v -0.038190 0.160157 0.093454
v -0.047928 0.370895 -0.006618
v -0.038190 0.347065 0.093454
v -0.047928 0.252921 -0.117284
v -0.038190 0.347065 -0.093454
v -0.008148 0.146785 -0.001012
v -0.006626 0.168490 -0.085120
v -0.008148 0.252982 -0.106825
v -0.006626 0.338731 -0.085120
v -0.008148 0.253768 0.106826
v -0.006626 0.168490 0.085120
v -0.008148 0.360436 -0.006028
v -0.006626 0.338731 0.085120
v -0.004599 -0.386394 0.032276
v -0.049627 -0.371006 0.030527
v -0.004599 0.136832 -0.127484
v -0.004599 0.085284 -0.031907
v -0.049627 0.082596 -0.030527
v 0.062281 0.077898 -0.000363
v 0.049627 0.082596 -0.030527
v -0.062281 0.077898 -0.000363
v 0.049627 0.082596 0.030527
v -0.049627 0.082596 0.030527
v -0.004599 0.085284 0.032276
v -0.004599 -0.171081 -0.031907
v -0.049627 -0.163944 -0.030527
v 0.062281 -0.168643 -0.000363
v 0.049627 -0.163944 -0.030527
v -0.062281 -0.168643 -0.000363
v 0.049627 -0.163944 0.030527
v -0.049627 -0.163944 0.030527
v -0.004599 -0.171081 0.032276
v 0.049627 -0.319267 -0.030527
v 0.062281 -0.323965 -0.000363
v 0.062281 -0.375704 -0.000363
v 0.049627 -0.371006 -0.030527
v -0.049627 -0.319267 -0.030527
v -0.004599 -0.332593 -0.031907
v -0.062281 -0.323965 -0.000363
v -0.049627 -0.319267 0.030527
v -0.004599 -0.332593 0.032276
v 0.049627 -0.319267 0.030527
v 0.049627 -0.371006 0.030527
v 0.049627 -0.279142 -0.030527
v 0.062281 -0.283841 -0.000363
v -0.049627 -0.279142 -0.159601
v -0.004599 -0.290870 -0.167600
v -0.004599 -0.332593 -0.167600
v -0.049627 -0.319266 -0.159601
v -0.062281 -0.283841 -0.000363
v -0.049627 -0.279142 -0.030527
v -0.049627 -0.279142 0.030527
v -0.004599 -0.290870 0.032276
v 0.049627 -0.279142 0.030527
v 0.049627 -0.206838 -0.030527
v 0.062281 -0.211536 -0.000363
v -0.049627 -0.206838 -0.030527
v -0.004599 -0.215684 -0.031907
v -0.004599 -0.290870 -0.031907
v -0.062281 -0.211536 -0.000363
v -0.049627 -0.206838 0.030527
v -0.004599 -0.215684 0.032276
v 0.049627 -0.206838 0.030527
v -0.049627 -0.163944 -0.159601
v -0.004599 -0.171081 -0.167600
v -0.004599 -0.215684 -0.167600
v -0.049627 -0.206838 -0.159601
v 0.049627 -0.319266 -0.159601
v 0.049627 -0.279142 -0.159601
v 0.049627 -0.206838 -0.159601
v 0.049627 -0.163944 -0.159601
vt 0.875000 0.124264
vt 0.875000 0.250000
vt 0.875000 0.124264
vt 0.757054 0.250000
vt 0.625000 0.250000
vt 0.757054 0.250000
vt 0.625000 0.125184
vt 0.625000 0.000000
vt 0.625000 0.125184
vt 0.375000 0.125184
vt 0.375000 0.000000
vt 0.375000 0.000000
vt 0.242946 0.250000
vt 0.375000 0.250000
vt 0.375000 0.250000
vt 0.125000 0.124264
vt 0.125000 0.250000
vt 0.125000 0.250000
vt 0.242946 0.250000
vt 0.875000 0.250000
vt 0.875000 0.000000
vt 0.875000 0.000000
vt 0.125000 0.000000
vt 0.125000 0.124264
vt 0.625000 0.250000
vt 0.375000 0.125184
vt 0.625000 0.873816
vt 0.625000 0.750000
vt 0.625000 0.750000
vt 0.375000 0.873816
vt 0.375000 0.750000
vt 0.375000 0.873816
vt 0.625000 1.000000
vt 0.625000 0.873816
vt 0.375000 1.000000
vt 0.375000 1.000000
vt 0.625000 0.873816
vt 0.625000 0.750000
vt 0.625000 0.750000
vt 0.375000 0.873816
vt 0.375000 0.750000
vt 0.375000 0.873816
vt 0.375000 1.000000
vt 0.375000 1.000000
vt 0.625000 1.000000
vt 0.625000 0.873816
vt 0.625000 0.873816
vt 0.625000 0.750000
vt 0.375000 0.873816
vt 0.375000 0.750000
vt 0.375000 1.000000
vt 0.625000 1.000000
vt 0.625000 0.873816
vt 0.625000 0.750000
vt 0.375000 0.873816
vt 0.375000 0.750000
vt 0.375000 1.000000
vt 0.625000 1.000000
vt 0.375000 0.750000
vt 0.625000 1.000000
vt 0.625000 0.750000
vt 0.375000 0.750000
vt 0.625000 0.750000
vt 0.375000 0.750000
vt 0.625000 0.000000
vt 0.125000 0.000000
vt 0.375000 0.750000
vt 0.625000 1.000000
vt 0.625000 0.750000
vt 0.375000 0.750000
vt 0.625000 0.750000
vt 0.375000 0.750000
vt 0.488340 0.000000
vt 0.488340 0.382054
vt 0.375000 0.382054
vt 0.375000 0.500000
vt 0.488340 0.625736
vt 0.375000 0.625736
vt 0.488340 0.873816
vt 0.751184 0.000000
vt 0.751184 0.000000
vt 0.248816 0.000000
vt 0.495264 0.000000
vt 0.000000 0.414221
vt 0.000000 0.000000
vt 0.497058 1.000000
vt 1.000000 0.585779
vt 1.000000 1.000000
vt 0.499266 1.000000
vt 1.000000 0.585779
vt 1.000000 1.000000
vt 0.528215 0.000000
vt 0.000000 0.414221
vt 0.000000 0.000000
vt 0.528215 0.414221
vt 1.000000 0.000000
vt 1.000000 0.414221
vt 0.248816 0.000000
vt 1.000000 0.414221
vt 1.000000 0.000000
vt 0.488340 0.750000
vt 0.375000 0.750000
vt 0.000000 0.585779
vt 0.000000 1.000000
vt 0.488340 0.125184
vt 0.000000 0.585779
vt 0.000000 1.000000
vt 0.488340 0.750000
vt 0.625000 0.873816
vt 0.625000 0.750000
vt 0.375000 0.873816
vt 0.375000 1.000000
vt 0.488340 1.000000
vt 0.488340 1.000000
vt 0.488340 1.000000
vt 0.488340 0.750000
vt 0.488340 1.000000
vt 0.488340 1.000000
vt 0.488340 0.750000
vt 0.488340 1.000000
vt 0.488340 0.750000
vt 0.488340 1.000000
vt 0.488340 0.750000
vt 0.488340 0.750000
vt 0.488340 0.750000
vt 0.488340 0.750000
vt 0.488340 0.750000
vt 0.625000 0.500000
vt 0.488340 0.500000
vt 0.625000 0.625736
vt 0.488340 0.750000
vt 0.625000 1.000000
vt 0.488340 0.250000
vt 0.625000 0.382054
vt 0.495264 1.000000
vt 0.000000 1.000000
vt 0.497058 0.000000
vt 0.000000 0.000000
vt 1.000000 0.000000
vt 0.528215 1.000000
vt 1.000000 1.000000
vt 0.000000 1.000000
vt 0.499266 0.000000
vt 0.000000 0.000000
vt 1.000000 0.000000
vt 1.000000 1.000000
vt 0.495264 0.414221
vt 0.497058 0.585779
vt 0.499266 0.585779
vn 0.9257 -0.0000 0.3783
vn 0.9257 -0.3783 -0.0000
vn 0.9257 0.0000 -0.3783
vn -0.9257 0.0000 -0.3783
vn -0.8551 -0.5100 -0.0928
vn -0.8568 -0.0976 0.5063
vn -0.9257 -0.3783 -0.0000
vn 0.8590 -0.5012 0.1043
vn -0.9257 0.0000 0.3783
vn 0.8570 -0.0984 -0.5058
vn 0.9221 0.0000 -0.3869
vn -0.9221 0.0000 -0.3869
vn 0.9254 -0.0000 0.3791
vn -0.9254 -0.0000 0.3791
vn 1.0000 0.0000 0.0000
vn -1.0000 0.0000 0.0000
vn 0.8568 -0.0976 0.5063
vn 0.8551 -0.5100 -0.0928
vn -0.8590 -0.5012 0.1043
vn -0.8570 -0.0984 -0.5058
vn 0.0021 -0.2589 0.9659
vn -0.1242 -0.2621 0.9570
vn -0.1102 -0.2559 0.9604
vn -0.2759 0.9348 0.2236
vn -0.0004 0.9716 0.2366
vn -0.2578 0.9379 0.2320
vn -0.1645 0.2350 -0.9580
vn 0.0007 0.2453 -0.9694
vn -0.1361 0.2477 -0.9592
vn -0.2779 -0.9343 -0.2233
vn -0.0159 -0.9820 -0.1881
vn -0.2567 -0.9328 -0.2530
vn 0.9734 0.1701 -0.1535
vn 0.9257 0.3783 0.0000
vn -0.9734 0.1701 -0.1535
vn -0.9257 0.3783 0.0000
vn -0.9545 0.2975 -0.0195
vn -0.2672 0.9636 -0.0002
vn -0.0040 0.7059 0.7083
vn -0.3498 0.6614 0.6635
vn -0.2672 -0.0002 0.9636
vn -0.0082 -0.6807 0.7325
vn -0.3404 -0.6396 0.6892
vn -0.2672 -0.0001 -0.9636
vn -0.0042 0.7098 -0.7044
vn -0.3498 0.6648 -0.6601
vn -0.2602 -0.9655 -0.0087
vn -0.0045 -0.7256 -0.6881
vn -0.3494 -0.6789 -0.6458
vn -0.0005 0.9629 -0.2699
vn -0.2750 0.9268 -0.2559
vn -0.2576 0.9292 -0.2650
vn -0.0743 -0.9966 0.0356
vn 0.9716 0.1865 0.1455
vn 0.9548 0.2967 0.0192
vn -0.0155 -0.9827 0.1845
vn -0.2799 -0.9349 0.2180
vn -0.2584 -0.9337 0.2479
vn -0.9716 0.1865 0.1455
vn -0.1177 -0.2645 -0.9572
vn 0.0022 -0.2606 -0.9654
vn -0.1023 -0.2576 -0.9608
vn 0.0006 0.2476 0.9689
vn -0.1713 0.2368 0.9563
vn -0.1424 0.2498 0.9578
vn 0.0299 -0.8792 -0.4755
vn 0.0005 -0.8786 -0.4776
vn 0.0377 -0.8773 -0.4784
vn 0.9349 -0.2627 -0.2387
vn 0.9545 0.2975 -0.0195
vn -0.9349 -0.2627 -0.2387
vn -0.9210 -0.0180 -0.3892
vn 0.9413 -0.2492 0.2275
vn 0.9261 0.0175 0.3768
vn 0.0260 -0.8793 0.4755
vn 0.0005 -0.8786 0.4776
vn -0.0005 -0.8801 0.4747
vn -0.9413 -0.2492 0.2275
vn -0.9548 0.2967 0.0192
vn 0.0000 0.0000 -1.0000
vn -0.0306 0.0000 -0.9995
vn 0.0001 -0.0000 1.0000
vn -0.0388 -0.0000 0.9992
vn 0.0002 -0.0000 1.0000
vn -0.0002 0.0000 -1.0000
vn -0.0002 -0.0000 1.0000
vn 0.0003 -0.0000 1.0000
vn -0.0007 -0.0000 -1.0000
vn -0.1749 0.0000 -0.9846
vn -0.0001 0.0000 -1.0000
vn -0.0004 0.0000 -1.0000
vn -0.0001 -0.0000 1.0000
vn -0.0003 1.0000 0.0000
vn 0.2520 0.9677 0.0000
vn -0.0006 -1.0000 0.0000
vn -0.2838 -0.9589 -0.0000
vn 0.0011 -1.0000 -0.0000
vn -0.0000 1.0000 0.0000
vn 0.1566 0.9877 0.0000
vn -0.0003 -1.0000 -0.0000
vn -0.1928 -0.9812 -0.0000
vn 0.0007 -1.0000 -0.0000
vn 0.1355 0.2358 -0.9623
vn 0.0003 0.2341 -0.9722
vn 0.0972 -0.2626 -0.9600
vn 0.0852 -0.2563 -0.9628
vn -0.0252 -0.8792 -0.4757
vn -0.0313 -0.8775 -0.4785
vn 0.0255 0.0000 -0.9997
vn 0.0001 0.0000 -1.0000
vn -0.1305 0.9914 0.0000
vn -0.0006 1.0000 0.0000
vn 0.1459 0.0000 -0.9893
vn 0.0007 0.0000 -1.0000
vn 0.1610 -0.9870 -0.0000
vn 0.0002 0.0000 -1.0000
vn -0.2114 0.9774 0.0000
vn -0.0010 1.0000 -0.0000
vn 0.0011 0.0000 -1.0000
vn 0.2387 -0.9711 -0.0000
vn 0.0003 0.0000 -1.0000
vn 0.2313 -0.9496 -0.2118
vn 0.2159 -0.9469 -0.2381
vn 0.2329 -0.9503 0.2067
vn 0.0134 -0.9889 0.1478
vn 0.0322 -0.0000 0.9995
vn -0.0220 -0.8793 0.4757
vn -0.0281 -0.8776 0.4785
vn 0.1028 -0.2602 0.9601
vn -0.0024 -0.2649 0.9643
vn 0.1412 0.2376 0.9610
vn 0.0004 0.2360 0.9718
vn 0.2308 0.9466 0.2252
vn 0.2159 0.9482 0.2330
vn 0.2300 0.9385 -0.2577
vn 0.0009 0.9651 -0.2619
vn 0.1961 0.9806 -0.0003
vn 0.2543 0.6827 0.6850
vn 0.1961 -0.0002 0.9806
vn 0.2538 -0.6644 0.7030
vn 0.1961 -0.9806 -0.0021
vn 0.2540 -0.7008 -0.6666
vn 0.1961 -0.0001 -0.9806
vn 0.2543 0.6863 -0.6814
vn 0.0008 0.9734 0.2292
vn 0.0136 -0.9884 -0.1513
vn -0.0031 1.0000 0.0000
vn -0.0031 0.0001 1.0000
vn -0.0032 -0.0000 -1.0000
vn -0.0024 -0.2673 -0.9636
vn -0.0005 -0.8801 -0.4747
vn 0.9210 -0.0180 -0.3892
vn 0.0338 -0.8775 0.4784
vn -0.9261 0.0175 0.3768
vn 0.1131 0.2476 -0.9622
vn 0.2173 -0.9478 0.2332
vn 0.0919 -0.2546 0.9627
vn 0.1184 0.2498 0.9610
vn 0.2158 0.9395 -0.2662
usemtl initialShadingGroup
s off
f 21/1/1 23/2/1 24/3/1
f 26/4/2 28/5/2 25/6/2
f 29/7/3 31/8/3 32/9/3
f 4/10/4 38/11/4 1/12/4
f 8/13/5 40/14/5 5/15/5
f 12/16/6 42/17/6 9/18/6
f 8/13/7 42/17/7 39/19/7
f 26/4/8 23/2/8 22/20/8
f 21/1/1 19/21/1 18/22/1
f 12/16/9 36/23/9 41/24/9
f 29/7/10 28/5/10 27/25/10
f 4/10/4 40/14/4 37/26/4
f 56/27/11 65/28/11 57/29/11
f 58/30/12 63/31/12 66/32/12
f 56/27/13 67/33/13 64/34/13
f 58/30/14 68/35/14 60/36/14
f 71/37/11 73/38/11 70/39/11
f 76/40/12 13/41/12 16/42/12
f 76/40/14 52/43/14 77/44/14
f 71/37/13 80/45/13 72/46/13
f 82/47/11 70/39/11 81/48/11
f 87/49/12 74/50/12 76/40/12
f 87/49/14 77/44/14 89/51/14
f 82/47/13 79/52/13 71/37/13
f 93/53/11 81/48/11 92/54/11
f 97/55/12 88/56/12 87/49/12
f 97/55/14 89/51/14 98/57/14
f 93/53/13 91/58/13 82/47/13
f 64/34/11 92/54/11 65/28/11
f 66/32/12 94/59/12 97/55/12
f 66/32/14 98/57/14 68/35/14
f 64/34/13 100/60/13 93/53/13
f 70/39/15 106/61/15 81/48/15
f 88/56/16 86/62/16 74/50/16
f 92/54/15 108/63/15 65/28/15
f 63/31/16 104/64/16 94/59/16
f 21/1/17 22/20/17 23/2/17
f 26/4/18 27/25/18 28/5/18
f 29/7/3 30/65/3 31/8/3
f 4/10/4 37/26/4 38/11/4
f 8/13/7 39/19/7 40/14/7
f 12/16/9 41/24/9 42/17/9
f 8/13/19 9/18/19 42/17/19
f 26/4/2 25/6/2 23/2/2
f 21/1/1 24/3/1 19/21/1
f 12/16/9 33/66/9 36/23/9
f 29/7/3 32/9/3 28/5/3
f 4/10/20 5/15/20 40/14/20
f 56/27/11 64/34/11 65/28/11
f 58/30/12 55/67/12 63/31/12
f 56/27/13 59/68/13 67/33/13
f 58/30/14 66/32/14 68/35/14
f 71/37/11 72/46/11 73/38/11
f 76/40/12 74/50/12 13/41/12
f 76/40/14 16/42/14 52/43/14
f 71/37/13 79/52/13 80/45/13
f 82/47/11 71/37/11 70/39/11
f 87/49/12 88/56/12 74/50/12
f 87/49/14 76/40/14 77/44/14
f 82/47/13 91/58/13 79/52/13
f 93/53/11 82/47/11 81/48/11
f 97/55/12 94/59/12 88/56/12
f 97/55/14 87/49/14 89/51/14
f 93/53/13 100/60/13 91/58/13
f 64/34/11 93/53/11 92/54/11
f 66/32/12 63/31/12 94/59/12
f 66/32/14 97/55/14 98/57/14
f 64/34/13 67/33/13 100/60/13
f 70/39/15 105/69/15 106/61/15
f 88/56/16 83/70/16 86/62/16
f 92/54/15 107/71/15 108/63/15
f 63/31/16 101/72/16 104/64/16
s 1
f 2/73/21 4/10/22 1/12/23
f 5/15/24 7/74/25 8/75/26
f 9/76/27 11/77/28 12/78/29
f 13/41/30 15/79/31 16/42/32
f 17/80/33 19/21/34 20/81/34
f 34/82/35 36/23/36 33/66/37
f 35/83/38 44/84/39 36/85/40
f 41/86/41 46/87/42 42/88/43
f 37/89/44 48/90/45 38/91/46
f 39/92/47 50/93/48 40/94/49
f 7/74/50 9/76/51 8/75/52
f 49/95/53 42/96/43 46/97/42
f 17/80/54 31/8/34 30/65/55
f 15/79/56 52/43/57 16/42/58
f 34/82/59 38/11/36 35/98/36
f 48/99/45 35/83/38 38/100/46
f 12/78/60 53/101/61 33/102/62
f 44/103/39 41/86/41 36/104/40
f 3/105/63 5/15/64 4/10/65
f 50/106/48 37/89/44 40/107/49
f 33/102/66 54/108/67 55/67/68
f 17/109/33 57/29/69 18/110/70
f 34/111/35 55/67/71 58/30/72
f 17/109/54 59/68/73 56/27/74
f 1/112/75 61/113/76 2/114/77
f 34/111/59 60/36/78 1/112/79
f 54/108/80 63/31/81 55/67/81
f 61/113/82 68/35/83 69/115/84
f 75/116/85 13/41/81 74/50/81
f 78/117/86 52/43/83 51/118/87
f 84/119/88 86/62/89 83/70/89
f 90/120/86 77/44/83 78/117/87
f 95/121/90 88/56/81 94/59/81
f 99/122/86 89/51/83 90/120/84
f 102/123/91 104/64/89 101/72/89
f 69/115/92 98/57/83 99/122/84
f 96/124/93 83/70/94 88/56/94
f 75/116/95 86/62/96 85/125/97
f 62/126/98 101/72/99 63/31/99
f 95/121/100 104/64/101 103/127/102
f 22/128/103 11/77/28 10/129/104
f 53/101/61 21/130/105 18/110/106
f 54/108/67 18/110/107 57/29/108
f 54/108/80 65/28/109 62/126/110
f 62/126/98 108/63/111 102/123/112
f 102/123/91 107/71/113 103/127/114
f 95/121/100 107/71/115 92/54/115
f 95/121/90 81/48/109 96/124/116
f 96/124/93 106/61/117 84/119/118
f 84/119/88 105/69/113 85/125/119
f 75/116/95 105/69/120 70/39/120
f 75/116/85 73/38/109 14/131/121
f 15/79/31 73/38/122 72/46/123
f 15/79/56 80/45/124 51/118/125
f 78/117/86 80/45/126 79/52/126
f 90/120/86 79/52/126 91/58/126
f 99/122/86 91/58/126 100/60/126
f 69/115/92 100/60/126 67/33/126
f 61/113/82 67/33/126 59/68/126
f 30/132/127 61/113/76 59/68/128
f 2/73/21 29/7/129 3/105/130
f 3/105/63 27/25/131 6/133/132
f 7/74/25 27/25/133 26/134/134
f 7/74/50 22/128/135 10/129/136
f 44/84/39 20/135/137 19/136/138
f 24/137/139 44/103/39 19/138/138
f 46/87/42 24/137/139 23/139/140
f 25/140/141 46/97/42 23/141/140
f 50/93/48 25/140/141 28/142/142
f 32/143/143 50/106/48 28/144/142
f 48/90/45 32/143/143 31/145/144
f 20/135/137 48/99/45 31/146/144
f 2/73/21 3/105/130 4/10/22
f 5/15/24 6/133/145 7/74/25
f 9/76/27 10/129/104 11/77/28
f 13/41/30 14/131/146 15/79/31
f 17/80/33 18/22/70 19/21/34
f 34/82/35 35/98/36 36/23/36
f 35/83/38 43/147/147 44/84/39
f 41/86/41 45/148/148 46/87/42
f 37/89/44 47/149/149 48/90/45
f 39/92/47 49/95/53 50/93/48
f 7/74/50 10/129/136 9/76/51
f 49/95/53 39/92/47 42/96/43
f 17/80/54 20/81/34 31/8/34
f 15/79/56 51/118/125 52/43/57
f 34/82/59 1/12/79 38/11/36
f 48/99/45 43/147/147 35/83/38
f 12/78/60 11/77/150 53/101/61
f 44/103/39 45/148/148 41/86/41
f 3/105/63 6/133/132 5/15/64
f 50/106/48 47/149/149 37/89/44
f 33/102/66 53/101/151 54/108/67
f 17/109/33 56/27/152 57/29/69
f 34/111/35 33/102/37 55/67/71
f 17/109/54 30/132/55 59/68/73
f 1/112/75 60/36/153 61/113/76
f 34/111/59 58/30/154 60/36/78
f 54/108/80 62/126/110 63/31/81
f 61/113/82 60/36/83 68/35/83
f 75/116/85 14/131/121 13/41/81
f 78/117/86 77/44/83 52/43/83
f 84/119/88 85/125/119 86/62/89
f 90/120/86 89/51/83 77/44/83
f 95/121/90 96/124/116 88/56/81
f 99/122/86 98/57/83 89/51/83
f 102/123/91 103/127/114 104/64/89
f 69/115/92 68/35/83 98/57/83
f 96/124/93 84/119/118 83/70/94
f 75/116/95 74/50/96 86/62/96
f 62/126/98 102/123/112 101/72/99
f 95/121/100 94/59/101 104/64/101
f 22/128/103 21/130/155 11/77/28
f 53/101/61 11/77/150 21/130/105
f 54/108/67 53/101/151 18/110/107
f 54/108/80 57/29/109 65/28/109
f 62/126/98 65/28/111 108/63/111
f 102/123/91 108/63/113 107/71/113
f 95/121/100 103/127/102 107/71/115
f 95/121/90 92/54/109 81/48/109
f 96/124/93 81/48/117 106/61/117
f 84/119/88 106/61/113 105/69/113
f 75/116/95 85/125/97 105/69/120
f 75/116/85 70/39/109 73/38/109
f 15/79/31 14/131/146 73/38/122
f 15/79/56 72/46/156 80/45/124
f 78/117/86 51/118/87 80/45/126
f 90/120/86 78/117/87 79/52/126
f 99/122/86 90/120/84 91/58/126
f 69/115/92 99/122/84 100/60/126
f 61/113/82 69/115/84 67/33/126
f 30/132/127 2/114/77 61/113/76
f 2/73/21 30/65/157 29/7/129
f 3/105/63 29/7/158 27/25/131
f 7/74/25 6/133/145 27/25/133
f 7/74/50 26/134/159 22/128/135
f 44/84/39 43/147/147 20/135/137
f 24/137/139 45/148/148 44/103/39
f 46/87/42 45/148/148 24/137/139
f 25/140/141 49/95/53 46/97/42
f 50/93/48 49/95/53 25/140/141
f 32/143/143 47/149/149 50/106/48
f 48/90/45 47/149/149 32/143/143
f 20/135/137 43/147/147 48/99/45
